<svg fill="#000000" xmlns="http://www.w3.org/2000/svg"  viewBox="0 0 50 50" width="50px" height="50px"><path d="M 21.5 4 C 19.5 4 17.800781 4.800781 16.402344 6 L 16 6 C 16 6 11.101563 5.898438 10 7 C 10 7 12.601563 6.800781 14.800781 8.101563 C 14.601563 8.398438 14.5 8.699219 14.402344 9 C 12 9.199219 7.300781 9.898438 4 13 C 4 13 8.398438 11 12.402344 11.300781 C 11.402344 12.300781 10.601563 13.300781 9.898438 14.5 C 6.800781 16.398438 3.300781 19.5 2.101563 24 C 2.101563 24 5 20.5 8.199219 18.199219 C 7.398438 20.097656 7 22.101563 7 24 C 7 27.125 7.980469 29.945313 9.546875 32.335938 C 9.449219 32.433594 9.351563 32.535156 9.265625 32.648438 L 6.800781 33 C 5.699219 33.199219 5 34.300781 5.300781 35.300781 L 6.28125 40.90625 C 5.273438 41.71875 4 43.09375 4 45 C 4 46.601563 5.398438 48 7 48 C 8.292969 48 9.171875 47.582031 9.9375 46.90625 C 10.25 46.960938 10.570313 47 10.902344 47 C 11.300781 47 11.699219 47 12.097656 46.902344 L 27.9375 43.285156 C 31.363281 46.203125 36.460938 47 39 47 C 40.601563 47 42 45.601563 42 44 C 42 42.023438 40.617188 40.628906 39.601563 39.855469 C 39.789063 39.648438 39.960938 39.433594 40.097656 39.199219 C 40.40625 38.660156 40.648438 37.9375 40.609375 36.953125 C 41.660156 36.863281 43.476563 36.550781 44.699219 35.402344 C 45.597656 34.5 46 33.398438 46 32.097656 C 46 31.972656 45.984375 31.835938 45.96875 31.699219 C 46.828125 30.304688 47 28.511719 47 27 C 47 26.398438 46.699219 25.800781 46.300781 25.402344 C 45.902344 25.101563 45.300781 24.898438 44.800781 25.097656 L 36.476563 26.90625 C 36.804688 25.632813 37 24.347656 37 23 C 37 16.898438 33.398438 11.398438 28.5 8.699219 C 27.300781 6 24.601563 4 21.5 4 Z M 21.5 6 C 24.5 6 27 8.5 27 11.5 C 27 14.5 24.5 17 21.5 17 C 18.5 17 16 14.5 16 11.5 C 16 11.199219 16 10.898438 16.097656 10.597656 L 16.199219 10.199219 C 16.699219 7.800781 18.898438 6 21.5 6 Z M 23.5 10 C 23.300781 10 23.199219 10 23 10.097656 C 23.101563 10.199219 23.199219 10.398438 23.199219 10.5 C 23.199219 10.898438 22.898438 11.199219 22.5 11.199219 C 22.300781 11.199219 22.199219 11.101563 22.097656 11 C 22.097656 11.101563 22 11.300781 22 11.5 C 22 12.300781 22.699219 13 23.5 13 C 24.300781 13 25 12.300781 25 11.5 C 25 10.699219 24.300781 10 23.5 10 Z M 29 11.402344 C 32.601563 14 35 18.300781 35 23 C 35 24.515625 34.738281 26.023438 34.28125 27.386719 L 34.023438 27.4375 C 33.34375 26.921875 32.476563 26.679688 31.597656 26.902344 L 29.597656 27.300781 C 29.199219 27.367188 28.894531 27.53125 28.640625 27.777344 C 28.308594 27.664063 27.933594 27.632813 27.597656 27.699219 L 24.699219 28.402344 C 24.304688 28.464844 24.003906 28.625 23.75 28.863281 C 23.425781 28.761719 23.070313 28.734375 22.699219 28.800781 L 19.800781 29.5 C 19.394531 29.566406 19.085938 29.734375 18.832031 29.984375 C 18.488281 29.863281 18.144531 29.832031 17.800781 29.902344 L 16.359375 30.246094 C 15.765625 29.460938 15 28.585938 15 28 C 15 27.398438 14.601563 27 14 27 C 13.398438 27 13 27.398438 13 28 C 13 29.300781 14 30.5 14.902344 31.597656 C 15.300781 32 16 32.800781 16 33.097656 C 14.199219 33.097656 11.800781 31.699219 10.800781 30.5 C 10.757813 30.425781 10.699219 30.367188 10.640625 30.3125 C 9.609375 28.445313 9 26.289063 9 24 C 9 19.898438 11 15.5 14.097656 12.5 C 14.597656 16.199219 17.699219 19 21.5 19 C 25.601563 19 29 15.601563 29 11.5 Z M 14 18 L 14 20.097656 C 14 21.800781 15.300781 24.300781 17.800781 25.800781 C 18.800781 26.402344 20 27 22 27 C 23.398438 27 25.402344 26.699219 27.402344 25.902344 C 27.902344 25.699219 28.199219 25.097656 28 24.597656 C 27.800781 24.097656 27.199219 23.800781 26.699219 24 C 26.5 24.101563 26.300781 24.199219 26.097656 24.199219 L 26.097656 22.5 C 27.300781 22.199219 28.597656 21.601563 29.597656 20.800781 C 30 20.5 30.101563 19.800781 29.800781 19.402344 C 29.5 19 28.800781 18.898438 28.402344 19.199219 C 26.699219 20.5 24.398438 21.199219 22 21.199219 C 19.699219 21.199219 17.398438 20.5 15.5 19.097656 Z M 16.699219 21.902344 C 18.398438 22.601563 20.199219 22.898438 22 23 C 22.699219 23 23.300781 23 24 22.902344 L 24 24.902344 C 22.199219 25.300781 20.601563 25.097656 18.902344 24.097656 C 17.902344 23.5 17.199219 22.699219 16.699219 21.902344 Z M 45 27 C 45 28.027344 44.898438 28.898438 44.675781 29.578125 C 44.242188 29.292969 43.699219 29.097656 43 29.097656 C 41 29.097656 40 30.800781 40 32.097656 C 40 32.21875 39.988281 32.328125 39.96875 32.4375 L 39.699219 32.5 C 39.199219 32.601563 38.699219 32.902344 38.402344 33.402344 C 38.101563 33.902344 38 34.402344 38.097656 34.902344 L 38.199219 35.5 L 38.199219 35.597656 C 38.597656 36.597656 38.601563 37.5 38.300781 38.097656 C 37.902344 38.800781 37 39.199219 35.800781 39.402344 L 11.597656 45 C 10.898438 45.199219 10.097656 45.097656 9.601563 44.699219 C 9 44.300781 8.699219 43.800781 8.601563 43 L 7.199219 35 L 8.660156 34.753906 C 8.671875 34.871094 8.675781 34.984375 8.699219 35.097656 L 10 41 C 10.101563 41.5 10.402344 42 10.902344 42.300781 C 11.199219 42.5 11.601563 42.597656 12 42.597656 L 12.402344 42.597656 L 15.300781 41.902344 C 15.664063 41.835938 15.980469 41.660156 16.234375 41.429688 C 16.417969 41.476563 16.609375 41.5 16.800781 41.5 L 17.199219 41.5 L 20.097656 40.800781 C 20.484375 40.703125 20.796875 40.519531 21.050781 40.292969 C 21.257813 40.363281 21.472656 40.402344 21.699219 40.402344 C 21.800781 40.402344 22 40.300781 22.097656 40.300781 L 25 39.597656 C 25.375 39.535156 25.667969 39.386719 25.910156 39.167969 C 26.132813 39.246094 26.347656 39.300781 26.597656 39.300781 C 26.699219 39.300781 26.898438 39.300781 27 39.199219 L 30 38.597656 C 30.34375 38.507813 30.632813 38.339844 30.871094 38.125 L 30.921875 38.113281 C 31.105469 38.171875 31.289063 38.199219 31.5 38.199219 L 32.097656 38.199219 L 35 37.5 C 36.101563 37.199219 36.699219 36.199219 36.5 35.097656 L 35.203125 29.226563 Z M 31.902344 28.800781 L 32.097656 28.800781 C 32.597656 28.800781 33 29.101563 33 29.5 L 34.300781 35.402344 L 32.113281 35.925781 L 31.402344 32.597656 C 31.324219 32.132813 30.941406 31.855469 30.542969 31.796875 L 30 29.300781 C 29.992188 29.257813 29.976563 29.226563 29.96875 29.1875 Z M 28 29.699219 L 28.5 32.152344 C 28.335938 32.199219 28.167969 32.289063 28.097656 32.5 C 28 32.800781 27.898438 33 28 33.300781 L 28.816406 36.738281 L 27.160156 37.140625 L 26.402344 33.597656 C 26.328125 33.175781 26.007813 32.910156 25.648438 32.824219 L 25.113281 30.375 Z M 23.097656 30.800781 L 23.605469 33.121094 C 23.414063 33.164063 23.183594 33.328125 23.097656 33.5 C 23 33.800781 22.898438 34 23 34.300781 L 23.851563 37.878906 L 22.402344 38.230469 L 21.597656 34.5 C 21.597656 34.300781 21.398438 34 21.199219 33.902344 C 21.007813 33.835938 20.855469 33.777344 20.691406 33.765625 L 20.199219 31.5 Z M 43 31 C 43.800781 31 44 31.5 44 32 C 44 32.699219 43.800781 33.300781 43.300781 33.800781 C 42.699219 34.5 41.699219 34.800781 41 34.902344 C 41.101563 34.699219 41.199219 34.601563 41.300781 34.402344 C 41.601563 33.800781 42 33.101563 42 32 C 42 32 42.101563 31 43 31 Z M 18.199219 31.902344 L 18.695313 34.183594 C 18.242188 34.375 18.011719 34.867188 18.097656 35.300781 L 18.890625 38.996094 L 17.386719 39.359375 L 16.597656 35.699219 C 16.554688 35.425781 16.398438 35.226563 16.203125 35.085938 C 17.367188 35.015625 18 34.328125 18 33.097656 C 18 32.710938 17.855469 32.359375 17.664063 32.007813 Z M 11.328125 33.53125 C 12.03125 33.984375 12.820313 34.375 13.636719 34.65625 L 13.761719 35.230469 C 13.582031 35.289063 13.378906 35.441406 13.300781 35.597656 C 13.199219 35.898438 13.097656 36.101563 13.199219 36.402344 L 13.992188 40.09375 L 11.902344 40.597656 L 10.597656 34.699219 C 10.503906 34.222656 10.78125 33.671875 11.328125 33.53125 Z M 37.800781 41.097656 C 38.402344 41.5 40 42.601563 40 44 C 40 44.5 39.5 45 39 45 C 37.140625 45 33.363281 44.511719 30.484375 42.703125 L 35.507813 41.558594 L 36.660156 41.328125 C 36.777344 41.308594 36.894531 41.285156 37.007813 41.257813 Z M 6.703125 43.308594 C 6.921875 44.542969 7.40625 45.34375 7.921875 45.847656 C 7.667969 45.949219 7.382813 46 7 46 C 6.5 46 6 45.5 6 45 C 6 44.328125 6.308594 43.777344 6.703125 43.308594 Z"/></svg>